<?xml version="1.0" encoding="UTF-8" standalone="no"?>
<!-- Created with Inkscape (http://www.inkscape.org/) -->

<svg
   xmlns:dc="http://purl.org/dc/elements/1.1/"
   xmlns:cc="http://creativecommons.org/ns#"
   xmlns:rdf="http://www.w3.org/1999/02/22-rdf-syntax-ns#"
   xmlns:svg="http://www.w3.org/2000/svg"
   xmlns="http://www.w3.org/2000/svg"
   xmlns:sodipodi="http://sodipodi.sourceforge.net/DTD/sodipodi-0.dtd"
   xmlns:inkscape="http://www.inkscape.org/namespaces/inkscape"
   width="400"
   height="40"
   id="svg3879"
   version="1.1"
   inkscape:version="0.48.4 r9939"
   sodipodi:docname="ornamentFFv_6.svg">
  <defs
     id="defs3881">
    <inkscape:path-effect
       fuse_tolerance="0"
       vertical_pattern="false"
       prop_units="false"
       tang_offset="0"
       normal_offset="0"
       spacing="0"
       scale_y_rel="false"
       prop_scale="1"
       copytype="single_stretched"
       pattern="m 1.1999997,1047.2672 0,10 10.0000003,-5 z"
       is_visible="true"
       id="path-effect4508"
       effect="skeletal" />
    <inkscape:path-effect
       effect="skeletal"
       id="path-effect4504"
       is_visible="true"
       pattern="m 1.2,1017.5622 0,10 10,-5 z"
       copytype="single_stretched"
       prop_scale="1"
       scale_y_rel="false"
       spacing="0"
       normal_offset="0"
       tang_offset="0"
       prop_units="false"
       vertical_pattern="false"
       fuse_tolerance="0" />
    <inkscape:path-effect
       effect="skeletal"
       id="path-effect4405"
       is_visible="true"
       pattern="m -7.2,1022.8622 0,10 10,-5 z"
       copytype="single_stretched"
       prop_scale="1"
       scale_y_rel="false"
       spacing="0"
       normal_offset="0"
       tang_offset="0"
       prop_units="false"
       vertical_pattern="false"
       fuse_tolerance="0" />
    <inkscape:path-effect
       effect="skeletal"
       id="path-effect4401"
       is_visible="true"
       pattern="m 9.9,1022.8622 0,10 10,-5 z"
       copytype="single_stretched"
       prop_scale="1"
       scale_y_rel="false"
       spacing="0"
       normal_offset="0"
       tang_offset="0"
       prop_units="false"
       vertical_pattern="false"
       fuse_tolerance="0" />
  </defs>
  <sodipodi:namedview
     id="base"
     pagecolor="#ffffff"
     bordercolor="#666666"
     borderopacity="1.0"
     inkscape:pageopacity="0.0"
     inkscape:pageshadow="2"
     inkscape:zoom="1.979899"
     inkscape:cx="213.17381"
     inkscape:cy="8.5858587"
     inkscape:document-units="px"
     inkscape:current-layer="layer1"
     showgrid="false"
     inkscape:showpageshadow="false"
     inkscape:window-width="1397"
     inkscape:window-height="876"
     inkscape:window-x="43"
     inkscape:window-y="24"
     inkscape:window-maximized="1"
     showborder="true"
     showguides="false"
     inkscape:guide-bbox="true">
    <inkscape:grid
       type="xygrid"
       id="grid3887"
       empspacing="5"
       visible="true"
       enabled="true"
       snapvisiblegridlinesonly="true" />
  </sodipodi:namedview>
  <metadata
     id="metadata3884">
    <rdf:RDF>
      <cc:Work
         rdf:about="">
        <dc:format>image/svg+xml</dc:format>
        <dc:type
           rdf:resource="http://purl.org/dc/dcmitype/StillImage" />
        <dc:title></dc:title>
      </cc:Work>
    </rdf:RDF>
  </metadata>
  <g
     inkscape:label="Layer 1"
     inkscape:groupmode="layer"
     id="layer1"
     transform="translate(0,-1012.3622)">
    <path
       sodipodi:type="arc"
       style="fill:#000000;fill-opacity:0.99543379;stroke:#000000;stroke-opacity:0.24200912"
       id="path3889"
       sodipodi:cx="190"
       sodipodi:cy="0"
       sodipodi:rx="10"
       sodipodi:ry="10"
       d="m 200,0 a 10,10 0 1 1 -20,0 10,10 0 1 1 20,0 z"
       transform="matrix(0.65714286,0,0,0.65714286,76.494857,1032.6642)" />
    <path
       style="fill:#000000;fill-rule:evenodd;stroke:none"
       d="m 189.9,1037.8622 0,-10 c -56.66651,1.6667 -113.333022,3.3333 -169.999533,5 -4.67e-4,0 -4.67e-4,0 -4.67e-4,0 0,0 0,0 4.67e-4,0 56.666511,1.6667 113.333023,3.3333 169.999533,5 z"
       id="path4399"
       inkscape:path-effect="#path-effect4401"
       inkscape:original-d="m 189.9,1032.8622 c -170,0 -170,0 -170,0 l 0,0"
       inkscape:connector-curvature="0" />
    <path
       style="fill:#000000;fill-rule:evenodd;stroke:none"
       d="m 212.8,1027.8622 0,10 c 49.28159,-1.4494 98.56318,-2.8989 147.84476,-4.3483 10e-6,0 10e-6,0 10e-6,0 6.38332,-0.1878 12.76664,-0.3755 19.14997,-0.5633 0,0 0,0 0,0 0.85524,-0.025 1.71047,-0.05 2.56571,-0.075 0.122,-0.01 0.24401,-0.01 0.36602,-0.012 0,0 0,0 0,0 0.0194,-9e-4 0.0388,-0 0.0582,-0 0.004,0 0.007,0 0.011,0 0.004,0 0.004,0 0.004,0 0,0 0,0 -4.7e-4,0 -0.008,0 -0.0112,0 -0.0148,0 -0.0194,-2e-4 -0.0388,-5e-4 -0.0582,-0 -0.12201,-0 -0.24401,-0.01 -0.36601,-0.012 -10e-6,0 -10e-6,0 -10e-6,0 -0.85524,-0.025 -1.71047,-0.05 -2.56571,-0.075 0,0 0,0 0,0 -6.38333,-0.1878 -12.76665,-0.3755 -19.14997,-0.5633 0,0 -10e-6,0 -10e-6,0 -49.28158,-1.4494 -98.56317,-2.8989 -147.84476,-4.3483 z"
       id="path4403"
       inkscape:path-effect="#path-effect4405"
       inkscape:original-d="m 212.8,1032.8622 c 170,0 170,0 170,0"
       inkscape:connector-curvature="0" />
    <path
       sodipodi:type="arc"
       style="fill:#000000;fill-opacity:0.99543379;stroke:#000000;stroke-opacity:0.24200912"
       id="path4475"
       sodipodi:cx="192.5"
       sodipodi:cy="-12.5"
       sodipodi:rx="2.5"
       sodipodi:ry="2.5"
       d="m 195,-12.5 a 2.5,2.5 0 1 1 -5,0 2.5,2.5 0 1 1 5,0 z"
       transform="matrix(0.60000004,0,0,0.6,71.671425,1027.0622)" />
    <path
       transform="matrix(0.60000004,0,0,0.6,100.04999,1053.9122)"
       d="m 195,-12.5 a 2.5,2.5 0 1 1 -5,0 2.5,2.5 0 1 1 5,0 z"
       sodipodi:ry="2.5"
       sodipodi:rx="2.5"
       sodipodi:cy="-12.5"
       sodipodi:cx="192.5"
       id="path4477"
       style="fill:#000000;fill-opacity:0.99543379;stroke:#000000;stroke-opacity:0.24200912"
       sodipodi:type="arc" />
    <path
       sodipodi:type="arc"
       style="fill:#000000;fill-opacity:0.99543379;stroke:#000000;stroke-opacity:0.24200912"
       id="path4479"
       sodipodi:cx="192.5"
       sodipodi:cy="-12.5"
       sodipodi:rx="2.5"
       sodipodi:ry="2.5"
       d="m 195,-12.5 a 2.5,2.5 0 1 1 -5,0 2.5,2.5 0 1 1 5,0 z"
       transform="matrix(0.60000004,0,0,0.6,71.671425,1053.9122)" />
    <path
       transform="matrix(0.60000004,0,0,0.6,100.04999,1027.0622)"
       d="m 195,-12.5 a 2.5,2.5 0 1 1 -5,0 2.5,2.5 0 1 1 5,0 z"
       sodipodi:ry="2.5"
       sodipodi:rx="2.5"
       sodipodi:cy="-12.5"
       sodipodi:cx="192.5"
       id="path4481"
       style="fill:#000000;fill-opacity:0.99543379;stroke:#000000;stroke-opacity:0.24200912"
       sodipodi:type="arc" />
    <path
       style="fill:#000000;fill-rule:evenodd;stroke:none"
       d="m 196.2,1022.5622 10,0 c -1.66661,-3.3333 -3.33322,-6.6666 -4.99983,-9.9998 -1.1e-4,-10e-5 -1.7e-4,-2e-4 -1.7e-4,-2e-4 0,0 -6e-5,1e-4 -1.7e-4,2e-4 -1.66661,3.3332 -3.33322,6.6665 -4.99983,9.9998 z"
       id="path4502"
       inkscape:path-effect="#path-effect4504"
       inkscape:original-d="m 201.2,1022.5622 c 0,-5 0,-10 0,-10 l 0,0"
       inkscape:connector-curvature="0" />
    <path
       inkscape:connector-curvature="0"
       inkscape:original-d="m 201.2,1042.2672 c 0,5 0,10 0,10 l 0,0"
       inkscape:path-effect="#path-effect4508"
       id="path4506"
       d="m 206.2,1042.2672 -10,0 c 1.66661,3.3333 3.33322,6.6666 4.99983,9.9998 1.1e-4,10e-5 1.7e-4,2e-4 1.7e-4,2e-4 0,0 6e-5,-10e-5 1.7e-4,-2e-4 1.66661,-3.3332 3.33322,-6.6665 4.99983,-9.9998 z"
       style="fill:#000000;fill-rule:evenodd;stroke:none" />
  </g>
</svg>
